# xmcd
#
# Track frame offsets:
#	225
#	14590
#	31474
#	47649
#	62811
#	78127
#	96321
#	117017
#	128899
#	140927
#	158266
#	183690
#	197017
#	213799
#
# Disc length: 3062 seconds
#
# Revision: 1
# Processed by: cddbd v1.5.1PL2 Copyright (c) Steve Scherf et al.
# Submitted via: audiograbber 1.83.01
#
DISCID=c00bf30e
DTITLE=Professor Washboard - Prime Partners
DYEAR=2000
DGENRE=Blues
TTITLE0=Kentucky Blues
TTITLE1=Keep Your Big Mouth Shut
TTITLE2=Dead Cat
TTITLE3=I Wann Be Like You
TTITLE4=Good Bye Red
TTITLE5=Tupelo Honey
TTITLE6=Drop Down Mama
TTITLE7=Automobile
TTITLE8=How Many More Years
TTITLE9=Yes, Instead of Maybe
TTITLE10=Who Do You Love
TTITLE11=Crosscut Saw
TTITLE12=Junco Partner
TTITLE13=Nobody's Sweetheart
EXTD=
EXTT0=
EXTT1=
EXTT2=
EXTT3=
EXTT4=
EXTT5=
EXTT6=
EXTT7=
EXTT8=
EXTT9=
EXTT10=
EXTT11=
EXTT12=
EXTT13=
PLAYORDER=
